# xmcd
#
# Track frame offsets:
#	150
#	16352
#	30622
#	44369
#	61403
#	76008
#	91965
#	104842
#	117166
#	131646
#	144078
#	155987
#	165854
#	187371
#	204271
#	216733
#	228006
#	239426
#	252553
#
# Disc length: 3586 seconds
#
# Revision: 0
# Processed by: cddbd v1.4PL0 Copyright (c) Steve Scherf et al.
# Submitted via: audiograbber 1.80
#
DISCID=0c0e0013
DTITLE=Chris Isaak - Speak Of The Devil
DYEAR=1900
DGENRE=
TTITLE0=Please
TTITLE1=Flying
TTITLE2=Walk Slow
TTITLE3=Breaking Apart
TTITLE4=This Time
TTITLE5=Speak Of The Devil
TTITLE6=Like The Way She Moves
TTITLE7=Wanderin'
TTITLE8=Don't Get So Down On Yourself
TTITLE9=Black Flowers
TTITLE10=I'm Not Sleepy
TTITLE11=Lonely Nights
TTITLE12=Talkin' 'bout A Home
TTITLE13=Super Magic 2000
TTITLE14=This Love Will Last
TTITLE15=You Took My Heart
TTITLE16=Cryin'
TTITLE17=Lovers Game
TTITLE18=Waiting For The Rain To Fall
EXTD=
EXTT0=
EXTT1=
EXTT2=
EXTT3=
EXTT4=
EXTT5=
EXTT6=
EXTT7=
EXTT8=
EXTT9=
EXTT10=
EXTT11=
EXTT12=
EXTT13=
EXTT14=
EXTT15=
EXTT16=
EXTT17=
EXTT18=
PLAYORDER=
